<svg width="14" height="13" viewBox="0 0 14 13" fill="none" xmlns="http://www.w3.org/2000/svg">
<path d="M8.04616 1.83779L8.41039 2.95877C8.69153 3.82401 9.49783 4.40983 10.4076 4.40983H11.5863C12.6519 4.40983 13.0949 5.77341 12.2328 6.39975L11.2793 7.09255C10.5433 7.6273 10.2353 8.57517 10.5164 9.44042L10.8806 10.5614C11.2099 11.5748 10.05 12.4176 9.18791 11.7912L8.23435 11.0984C7.49833 10.5637 6.50167 10.5637 5.76565 11.0984L4.81209 11.7912C3.95001 12.4176 2.79008 11.5748 3.11937 10.5614L3.48359 9.44042C3.76473 8.57517 3.45675 7.6273 2.72072 7.09255L1.76716 6.39975C0.905079 5.77341 1.34813 4.40983 2.41373 4.40983H3.59239C4.50217 4.40983 5.30847 3.82401 5.58961 2.95877L5.95384 1.83779C6.28312 0.824347 7.71688 0.824347 8.04616 1.83779Z" fill="url(#paint0_linear_1_1820)" stroke="black"/>
<defs>
<linearGradient id="paint0_linear_1_1820" x1="-0.171582" y1="-1.51767" x2="13.0206" y2="10.2516" gradientUnits="userSpaceOnUse">
<stop stop-color="#FF006B"/>
<stop offset="1" stop-color="#FF4593"/>
</linearGradient>
</defs>
</svg>
